<?xml version="1.0" encoding="UTF-8"?>
<svg id="Camada_2" xmlns="http://www.w3.org/2000/svg" xmlns:xlink="http://www.w3.org/1999/xlink" viewBox="0 0 1920 1082">
  <defs>
    <style>
      .cls-1 {
        fill: #fff;
      }

      .cls-2 {
        fill: url(#Gradiente_sem_nome_514);
      }

      .cls-3 {
        opacity: .6;
      }
    </style>
    <radialGradient id="Gradiente_sem_nome_514" data-name="Gradiente sem nome 514" cx="952.46" cy="1222" fx="952.46" fy="1222" r="1001.53" gradientUnits="userSpaceOnUse">
      <stop offset="0" stop-color="#1c3d46"/>
      <stop offset=".62" stop-color="#1c2833"/>
      <stop offset="1" stop-color="#1c1a26"/>
    </radialGradient>
  </defs>
  <g id="Camada_2-2" data-name="Camada_2">
    <g>
      <rect class="cls-2" width="1920" height="1080"/>
      <g class="cls-3">
        <circle class="cls-1" cx="186" cy="73" r="3"/>
        <circle class="cls-1" cx="221.5" cy="128.5" r="1.5"/>
        <circle class="cls-1" cx="122.5" cy="230.5" r="3.5"/>
        <circle class="cls-1" cx="153.5" cy="169.5" r="1.5"/>
        <circle class="cls-1" cx="260" cy="204" r="1"/>
        <circle class="cls-1" cx="227" cy="177" r="3"/>
        <circle class="cls-1" cx="181.5" cy="219.5" r="1.5"/>
        <circle class="cls-1" cx="213.5" cy="202.5" r="1.5"/>
        <circle class="cls-1" cx="122.75" cy="4.84" r="3.5"/>
        <circle class="cls-1" cx="55.3" cy="16.34" r="1.5"/>
        <circle class="cls-1" cx="56.63" cy="128.28" r="1"/>
        <circle class="cls-1" cx="40.65" cy="88.75" r="3"/>
        <circle class="cls-1" cx="94.74" cy="57.92" r="1.5"/>
        <circle class="cls-1" cx="69" cy="83.43" r="1.5"/>
        <circle class="cls-1" cx="438" cy="85" r="3"/>
        <circle class="cls-1" cx="473.5" cy="140.5" r="1.5"/>
        <circle class="cls-1" cx="374.5" cy="242.5" r="3.5"/>
        <circle class="cls-1" cx="405.5" cy="181.5" r="1.5"/>
        <circle class="cls-1" cx="512" cy="216" r="1"/>
        <circle class="cls-1" cx="479" cy="189" r="3"/>
        <circle class="cls-1" cx="433.5" cy="231.5" r="1.5"/>
        <circle class="cls-1" cx="465.5" cy="214.5" r="1.5"/>
        <circle class="cls-1" cx="374.75" cy="16.84" r="3.5"/>
        <circle class="cls-1" cx="307.3" cy="28.34" r="1.5"/>
        <circle class="cls-1" cx="308.63" cy="140.28" r="1"/>
        <circle class="cls-1" cx="292.65" cy="100.75" r="3"/>
        <circle class="cls-1" cx="346.74" cy="69.92" r="1.5"/>
        <circle class="cls-1" cx="321" cy="95.43" r="1.5"/>
        <circle class="cls-1" cx="134" cy="264" r="3"/>
        <circle class="cls-1" cx="169.5" cy="319.5" r="1.5"/>
        <circle class="cls-1" cx="70.5" cy="421.5" r="3.5"/>
        <circle class="cls-1" cx="101.5" cy="360.5" r="1.5"/>
        <circle class="cls-1" cx="208" cy="395" r="1"/>
        <circle class="cls-1" cx="175" cy="368" r="3"/>
        <circle class="cls-1" cx="129.5" cy="410.5" r="1.5"/>
        <circle class="cls-1" cx="161.5" cy="393.5" r="1.5"/>
        <circle class="cls-1" cx="70.75" cy="195.84" r="3.5"/>
        <circle class="cls-1" cx="3.3" cy="207.34" r="1.5"/>
        <circle class="cls-1" cx="4.63" cy="319.28" r="1"/>
        <circle class="cls-1" cx="42.74" cy="248.92" r="1.5"/>
        <circle class="cls-1" cx="17" cy="274.43" r="1.5"/>
        <circle class="cls-1" cx="386" cy="276" r="3"/>
        <circle class="cls-1" cx="421.5" cy="331.5" r="1.5"/>
        <circle class="cls-1" cx="322.5" cy="433.5" r="3.5"/>
        <circle class="cls-1" cx="353.5" cy="372.5" r="1.5"/>
        <circle class="cls-1" cx="460" cy="407" r="1"/>
        <circle class="cls-1" cx="427" cy="380" r="3"/>
        <circle class="cls-1" cx="381.5" cy="422.5" r="1.5"/>
        <circle class="cls-1" cx="413.5" cy="405.5" r="1.5"/>
        <circle class="cls-1" cx="322.75" cy="207.84" r="3.5"/>
        <circle class="cls-1" cx="255.3" cy="219.34" r="1.5"/>
        <circle class="cls-1" cx="256.63" cy="331.28" r="1"/>
        <circle class="cls-1" cx="240.65" cy="291.75" r="3"/>
        <circle class="cls-1" cx="294.74" cy="260.92" r="1.5"/>
        <circle class="cls-1" cx="269" cy="286.43" r="1.5"/>
        <circle class="cls-1" cx="702" cy="93" r="3"/>
        <circle class="cls-1" cx="737.5" cy="148.5" r="1.5"/>
        <circle class="cls-1" cx="638.5" cy="250.5" r="3.5"/>
        <circle class="cls-1" cx="669.5" cy="189.5" r="1.5"/>
        <circle class="cls-1" cx="776" cy="224" r="1"/>
        <circle class="cls-1" cx="743" cy="197" r="3"/>
        <circle class="cls-1" cx="697.5" cy="239.5" r="1.5"/>
        <circle class="cls-1" cx="729.5" cy="222.5" r="1.5"/>
        <circle class="cls-1" cx="469.5" cy="38.73" r="3"/>
        <circle class="cls-1" cx="511.96" cy="89.11" r="1.5"/>
        <circle class="cls-1" cx="638.75" cy="24.84" r="3.5"/>
        <circle class="cls-1" cx="571.3" cy="36.34" r="1.5"/>
        <circle class="cls-1" cx="572.63" cy="148.28" r="1"/>
        <circle class="cls-1" cx="556.65" cy="108.75" r="3"/>
        <circle class="cls-1" cx="610.74" cy="77.92" r="1.5"/>
        <circle class="cls-1" cx="585" cy="103.43" r="1.5"/>
        <circle class="cls-1" cx="954" cy="105" r="3"/>
        <circle class="cls-1" cx="989.5" cy="160.5" r="1.5"/>
        <circle class="cls-1" cx="890.5" cy="262.5" r="3.5"/>
        <circle class="cls-1" cx="921.5" cy="201.5" r="1.5"/>
        <circle class="cls-1" cx="1028" cy="236" r="1"/>
        <circle class="cls-1" cx="995" cy="209" r="3"/>
        <circle class="cls-1" cx="949.5" cy="251.5" r="1.5"/>
        <circle class="cls-1" cx="981.5" cy="234.5" r="1.5"/>
        <circle class="cls-1" cx="890.75" cy="36.84" r="3.5"/>
        <circle class="cls-1" cx="823.3" cy="48.34" r="1.5"/>
        <circle class="cls-1" cx="824.63" cy="160.28" r="1"/>
        <circle class="cls-1" cx="808.65" cy="120.75" r="3"/>
        <circle class="cls-1" cx="862.74" cy="89.92" r="1.5"/>
        <circle class="cls-1" cx="837" cy="115.43" r="1.5"/>
        <circle class="cls-1" cx="650" cy="284" r="3"/>
        <circle class="cls-1" cx="685.5" cy="339.5" r="1.5"/>
        <circle class="cls-1" cx="586.5" cy="441.5" r="3.5"/>
        <circle class="cls-1" cx="617.5" cy="380.5" r="1.5"/>
        <circle class="cls-1" cx="724" cy="415" r="1"/>
        <circle class="cls-1" cx="691" cy="388" r="3"/>
        <circle class="cls-1" cx="645.5" cy="430.5" r="1.5"/>
        <circle class="cls-1" cx="677.5" cy="413.5" r="1.5"/>
        <circle class="cls-1" cx="417.5" cy="229.73" r="3"/>
        <circle class="cls-1" cx="459.96" cy="280.11" r="1.5"/>
        <circle class="cls-1" cx="586.75" cy="215.84" r="3.5"/>
        <circle class="cls-1" cx="519.3" cy="227.34" r="1.5"/>
        <circle class="cls-1" cx="520.63" cy="339.28" r="1"/>
        <circle class="cls-1" cx="504.65" cy="299.75" r="3"/>
        <circle class="cls-1" cx="558.74" cy="268.92" r="1.5"/>
        <circle class="cls-1" cx="533" cy="294.43" r="1.5"/>
        <circle class="cls-1" cx="902" cy="296" r="3"/>
        <circle class="cls-1" cx="937.5" cy="351.5" r="1.5"/>
        <circle class="cls-1" cx="838.5" cy="453.5" r="3.5"/>
        <circle class="cls-1" cx="869.5" cy="392.5" r="1.5"/>
        <circle class="cls-1" cx="976" cy="427" r="1"/>
        <circle class="cls-1" cx="943" cy="400" r="3"/>
        <circle class="cls-1" cx="897.5" cy="442.5" r="1.5"/>
        <circle class="cls-1" cx="929.5" cy="425.5" r="1.5"/>
        <circle class="cls-1" cx="838.75" cy="227.84" r="3.5"/>
        <circle class="cls-1" cx="771.3" cy="239.34" r="1.5"/>
        <circle class="cls-1" cx="772.63" cy="351.28" r="1"/>
        <circle class="cls-1" cx="756.65" cy="311.75" r="3"/>
        <circle class="cls-1" cx="810.74" cy="280.92" r="1.5"/>
        <circle class="cls-1" cx="785" cy="306.43" r="1.5"/>
        <circle class="cls-1" cx="1175" cy="83" r="3"/>
        <circle class="cls-1" cx="1210.5" cy="138.5" r="1.5"/>
        <circle class="cls-1" cx="1111.5" cy="240.5" r="3.5"/>
        <circle class="cls-1" cx="1142.5" cy="179.5" r="1.5"/>
        <circle class="cls-1" cx="1249" cy="214" r="1"/>
        <circle class="cls-1" cx="1216" cy="187" r="3"/>
        <circle class="cls-1" cx="1170.5" cy="229.5" r="1.5"/>
        <circle class="cls-1" cx="1202.5" cy="212.5" r="1.5"/>
        <circle class="cls-1" cx="942.5" cy="28.73" r="3"/>
        <circle class="cls-1" cx="984.96" cy="79.11" r="1.5"/>
        <circle class="cls-1" cx="1111.75" cy="14.84" r="3.5"/>
        <circle class="cls-1" cx="1044.3" cy="26.34" r="1.5"/>
        <circle class="cls-1" cx="1045.63" cy="138.28" r="1"/>
        <circle class="cls-1" cx="1029.65" cy="98.75" r="3"/>
        <circle class="cls-1" cx="1083.74" cy="67.92" r="1.5"/>
        <circle class="cls-1" cx="1058" cy="93.43" r="1.5"/>
        <circle class="cls-1" cx="1427" cy="95" r="3"/>
        <circle class="cls-1" cx="1462.5" cy="150.5" r="1.5"/>
        <circle class="cls-1" cx="1363.5" cy="252.5" r="3.5"/>
        <circle class="cls-1" cx="1394.5" cy="191.5" r="1.5"/>
        <circle class="cls-1" cx="1501" cy="226" r="1"/>
        <circle class="cls-1" cx="1468" cy="199" r="3"/>
        <circle class="cls-1" cx="1422.5" cy="241.5" r="1.5"/>
        <circle class="cls-1" cx="1454.5" cy="224.5" r="1.5"/>
        <circle class="cls-1" cx="1363.75" cy="26.84" r="3.5"/>
        <circle class="cls-1" cx="1296.3" cy="38.34" r="1.5"/>
        <circle class="cls-1" cx="1297.63" cy="150.28" r="1"/>
        <circle class="cls-1" cx="1281.65" cy="110.75" r="3"/>
        <circle class="cls-1" cx="1335.74" cy="79.92" r="1.5"/>
        <circle class="cls-1" cx="1310" cy="105.43" r="1.5"/>
        <circle class="cls-1" cx="1123" cy="274" r="3"/>
        <circle class="cls-1" cx="1158.5" cy="329.5" r="1.5"/>
        <circle class="cls-1" cx="1059.5" cy="431.5" r="3.5"/>
        <circle class="cls-1" cx="1090.5" cy="370.5" r="1.5"/>
        <circle class="cls-1" cx="1197" cy="405" r="1"/>
        <circle class="cls-1" cx="1164" cy="378" r="3"/>
        <circle class="cls-1" cx="1118.5" cy="420.5" r="1.5"/>
        <circle class="cls-1" cx="1150.5" cy="403.5" r="1.5"/>
        <circle class="cls-1" cx="890.5" cy="219.73" r="3"/>
        <circle class="cls-1" cx="932.96" cy="270.11" r="1.5"/>
        <circle class="cls-1" cx="1059.75" cy="205.84" r="3.5"/>
        <circle class="cls-1" cx="992.3" cy="217.34" r="1.5"/>
        <circle class="cls-1" cx="993.63" cy="329.28" r="1"/>
        <circle class="cls-1" cx="977.65" cy="289.75" r="3"/>
        <circle class="cls-1" cx="1031.74" cy="258.92" r="1.5"/>
        <circle class="cls-1" cx="1006" cy="284.43" r="1.5"/>
        <circle class="cls-1" cx="1375" cy="286" r="3"/>
        <circle class="cls-1" cx="1410.5" cy="341.5" r="1.5"/>
        <circle class="cls-1" cx="1311.5" cy="443.5" r="3.5"/>
        <circle class="cls-1" cx="1342.5" cy="382.5" r="1.5"/>
        <circle class="cls-1" cx="1449" cy="417" r="1"/>
        <circle class="cls-1" cx="1416" cy="390" r="3"/>
        <circle class="cls-1" cx="1370.5" cy="432.5" r="1.5"/>
        <circle class="cls-1" cx="1402.5" cy="415.5" r="1.5"/>
        <circle class="cls-1" cx="1311.75" cy="217.84" r="3.5"/>
        <circle class="cls-1" cx="1244.3" cy="229.34" r="1.5"/>
        <circle class="cls-1" cx="1245.63" cy="341.28" r="1"/>
        <circle class="cls-1" cx="1229.65" cy="301.75" r="3"/>
        <circle class="cls-1" cx="1283.74" cy="270.92" r="1.5"/>
        <circle class="cls-1" cx="1258" cy="296.43" r="1.5"/>
        <circle class="cls-1" cx="1691" cy="103" r="3"/>
        <circle class="cls-1" cx="1726.5" cy="158.5" r="1.5"/>
        <circle class="cls-1" cx="1627.5" cy="260.5" r="3.5"/>
        <circle class="cls-1" cx="1658.5" cy="199.5" r="1.5"/>
        <circle class="cls-1" cx="1765" cy="234" r="1"/>
        <circle class="cls-1" cx="1732" cy="207" r="3"/>
        <circle class="cls-1" cx="1686.5" cy="249.5" r="1.5"/>
        <circle class="cls-1" cx="1718.5" cy="232.5" r="1.5"/>
        <circle class="cls-1" cx="1458.5" cy="48.73" r="3"/>
        <circle class="cls-1" cx="1500.96" cy="99.11" r="1.5"/>
        <circle class="cls-1" cx="1627.75" cy="34.84" r="3.5"/>
        <circle class="cls-1" cx="1560.3" cy="46.34" r="1.5"/>
        <circle class="cls-1" cx="1561.63" cy="158.28" r="1"/>
        <circle class="cls-1" cx="1545.65" cy="118.75" r="3"/>
        <circle class="cls-1" cx="1599.74" cy="87.92" r="1.5"/>
        <circle class="cls-1" cx="1574" cy="113.43" r="1.5"/>
        <circle class="cls-1" cx="1879.5" cy="272.5" r="3.5"/>
        <circle class="cls-1" cx="1910.5" cy="211.5" r="1.5"/>
        <circle class="cls-1" cx="1879.75" cy="46.84" r="3.5"/>
        <circle class="cls-1" cx="1812.3" cy="58.34" r="1.5"/>
        <circle class="cls-1" cx="1813.63" cy="170.28" r="1"/>
        <circle class="cls-1" cx="1797.65" cy="130.75" r="3"/>
        <circle class="cls-1" cx="1851.74" cy="99.92" r="1.5"/>
        <circle class="cls-1" cx="1826" cy="125.43" r="1.5"/>
        <circle class="cls-1" cx="1639" cy="294" r="3"/>
        <circle class="cls-1" cx="1674.5" cy="349.5" r="1.5"/>
        <circle class="cls-1" cx="1575.5" cy="451.5" r="3.5"/>
        <circle class="cls-1" cx="1606.5" cy="390.5" r="1.5"/>
        <circle class="cls-1" cx="1713" cy="425" r="1"/>
        <circle class="cls-1" cx="1680" cy="398" r="3"/>
        <circle class="cls-1" cx="1634.5" cy="440.5" r="1.5"/>
        <circle class="cls-1" cx="1666.5" cy="423.5" r="1.5"/>
        <circle class="cls-1" cx="1406.5" cy="239.73" r="3"/>
        <circle class="cls-1" cx="1448.96" cy="290.11" r="1.5"/>
        <circle class="cls-1" cx="1575.75" cy="225.84" r="3.5"/>
        <circle class="cls-1" cx="1508.3" cy="237.34" r="1.5"/>
        <circle class="cls-1" cx="1509.63" cy="349.28" r="1"/>
        <circle class="cls-1" cx="1493.65" cy="309.75" r="3"/>
        <circle class="cls-1" cx="1547.74" cy="278.92" r="1.5"/>
        <circle class="cls-1" cx="1522" cy="304.43" r="1.5"/>
        <circle class="cls-1" cx="1891" cy="306" r="3"/>
        <circle class="cls-1" cx="1827.5" cy="463.5" r="3.5"/>
        <circle class="cls-1" cx="1858.5" cy="402.5" r="1.5"/>
        <circle class="cls-1" cx="1886.5" cy="452.5" r="1.5"/>
        <circle class="cls-1" cx="1918.5" cy="435.5" r="1.5"/>
        <circle class="cls-1" cx="1827.75" cy="237.84" r="3.5"/>
        <circle class="cls-1" cx="1760.3" cy="249.34" r="1.5"/>
        <circle class="cls-1" cx="1761.63" cy="361.28" r="1"/>
        <circle class="cls-1" cx="1745.65" cy="321.75" r="3"/>
        <circle class="cls-1" cx="1799.74" cy="290.92" r="1.5"/>
        <circle class="cls-1" cx="1774" cy="316.43" r="1.5"/>
        <circle class="cls-1" cx="176" cy="533" r="3"/>
        <circle class="cls-1" cx="211.5" cy="588.5" r="1.5"/>
        <circle class="cls-1" cx="112.5" cy="690.5" r="3.5"/>
        <circle class="cls-1" cx="143.5" cy="629.5" r="1.5"/>
        <circle class="cls-1" cx="250" cy="664" r="1"/>
        <circle class="cls-1" cx="217" cy="637" r="3"/>
        <circle class="cls-1" cx="171.5" cy="679.5" r="1.5"/>
        <circle class="cls-1" cx="203.5" cy="662.5" r="1.5"/>
        <circle class="cls-1" cx="112.75" cy="464.84" r="3.5"/>
        <circle class="cls-1" cx="45.3" cy="476.34" r="1.5"/>
        <circle class="cls-1" cx="46.63" cy="588.28" r="1"/>
        <circle class="cls-1" cx="30.65" cy="548.75" r="3"/>
        <circle class="cls-1" cx="84.74" cy="517.92" r="1.5"/>
        <circle class="cls-1" cx="59" cy="543.43" r="1.5"/>
        <circle class="cls-1" cx="428" cy="545" r="3"/>
        <circle class="cls-1" cx="463.5" cy="600.5" r="1.5"/>
        <circle class="cls-1" cx="364.5" cy="702.5" r="3.5"/>
        <circle class="cls-1" cx="395.5" cy="641.5" r="1.5"/>
        <circle class="cls-1" cx="502" cy="676" r="1"/>
        <circle class="cls-1" cx="469" cy="649" r="3"/>
        <circle class="cls-1" cx="423.5" cy="691.5" r="1.5"/>
        <circle class="cls-1" cx="455.5" cy="674.5" r="1.5"/>
        <circle class="cls-1" cx="364.75" cy="476.84" r="3.5"/>
        <circle class="cls-1" cx="297.3" cy="488.34" r="1.5"/>
        <circle class="cls-1" cx="298.63" cy="600.28" r="1"/>
        <circle class="cls-1" cx="282.65" cy="560.75" r="3"/>
        <circle class="cls-1" cx="336.74" cy="529.92" r="1.5"/>
        <circle class="cls-1" cx="311" cy="555.43" r="1.5"/>
        <circle class="cls-1" cx="124" cy="724" r="3"/>
        <circle class="cls-1" cx="159.5" cy="779.5" r="1.5"/>
        <circle class="cls-1" cx="60.5" cy="881.5" r="3.5"/>
        <circle class="cls-1" cx="91.5" cy="820.5" r="1.5"/>
        <circle class="cls-1" cx="198" cy="855" r="1"/>
        <circle class="cls-1" cx="165" cy="828" r="3"/>
        <circle class="cls-1" cx="119.5" cy="870.5" r="1.5"/>
        <circle class="cls-1" cx="151.5" cy="853.5" r="1.5"/>
        <circle class="cls-1" cx="60.75" cy="655.84" r="3.5"/>
        <circle class="cls-1" cx="32.74" cy="708.92" r="1.5"/>
        <circle class="cls-1" cx="7" cy="734.43" r="1.5"/>
        <circle class="cls-1" cx="376" cy="736" r="3"/>
        <circle class="cls-1" cx="411.5" cy="791.5" r="1.5"/>
        <circle class="cls-1" cx="312.5" cy="893.5" r="3.5"/>
        <circle class="cls-1" cx="343.5" cy="832.5" r="1.5"/>
        <circle class="cls-1" cx="450" cy="867" r="1"/>
        <circle class="cls-1" cx="417" cy="840" r="3"/>
        <circle class="cls-1" cx="371.5" cy="882.5" r="1.5"/>
        <circle class="cls-1" cx="403.5" cy="865.5" r="1.5"/>
        <circle class="cls-1" cx="312.75" cy="667.84" r="3.5"/>
        <circle class="cls-1" cx="245.3" cy="679.34" r="1.5"/>
        <circle class="cls-1" cx="246.63" cy="791.28" r="1"/>
        <circle class="cls-1" cx="230.65" cy="751.75" r="3"/>
        <circle class="cls-1" cx="284.74" cy="720.92" r="1.5"/>
        <circle class="cls-1" cx="259" cy="746.43" r="1.5"/>
        <circle class="cls-1" cx="692" cy="553" r="3"/>
        <circle class="cls-1" cx="727.5" cy="608.5" r="1.5"/>
        <circle class="cls-1" cx="628.5" cy="710.5" r="3.5"/>
        <circle class="cls-1" cx="659.5" cy="649.5" r="1.5"/>
        <circle class="cls-1" cx="766" cy="684" r="1"/>
        <circle class="cls-1" cx="733" cy="657" r="3"/>
        <circle class="cls-1" cx="687.5" cy="699.5" r="1.5"/>
        <circle class="cls-1" cx="719.5" cy="682.5" r="1.5"/>
        <circle class="cls-1" cx="459.5" cy="498.73" r="3"/>
        <circle class="cls-1" cx="501.96" cy="549.11" r="1.5"/>
        <circle class="cls-1" cx="628.75" cy="484.84" r="3.5"/>
        <circle class="cls-1" cx="561.3" cy="496.34" r="1.5"/>
        <circle class="cls-1" cx="562.63" cy="608.28" r="1"/>
        <circle class="cls-1" cx="546.65" cy="568.75" r="3"/>
        <circle class="cls-1" cx="600.74" cy="537.92" r="1.5"/>
        <circle class="cls-1" cx="575" cy="563.43" r="1.5"/>
        <circle class="cls-1" cx="944" cy="565" r="3"/>
        <circle class="cls-1" cx="979.5" cy="620.5" r="1.5"/>
        <circle class="cls-1" cx="880.5" cy="722.5" r="3.5"/>
        <circle class="cls-1" cx="911.5" cy="661.5" r="1.5"/>
        <circle class="cls-1" cx="1018" cy="696" r="1"/>
        <circle class="cls-1" cx="985" cy="669" r="3"/>
        <circle class="cls-1" cx="939.5" cy="711.5" r="1.5"/>
        <circle class="cls-1" cx="971.5" cy="694.5" r="1.5"/>
        <circle class="cls-1" cx="880.75" cy="496.84" r="3.5"/>
        <circle class="cls-1" cx="813.3" cy="508.34" r="1.5"/>
        <circle class="cls-1" cx="814.63" cy="620.28" r="1"/>
        <circle class="cls-1" cx="798.65" cy="580.75" r="3"/>
        <circle class="cls-1" cx="852.74" cy="549.92" r="1.5"/>
        <circle class="cls-1" cx="827" cy="575.43" r="1.5"/>
        <circle class="cls-1" cx="640" cy="744" r="3"/>
        <circle class="cls-1" cx="675.5" cy="799.5" r="1.5"/>
        <circle class="cls-1" cx="576.5" cy="901.5" r="3.5"/>
        <circle class="cls-1" cx="607.5" cy="840.5" r="1.5"/>
        <circle class="cls-1" cx="714" cy="875" r="1"/>
        <circle class="cls-1" cx="681" cy="848" r="3"/>
        <circle class="cls-1" cx="635.5" cy="890.5" r="1.5"/>
        <circle class="cls-1" cx="667.5" cy="873.5" r="1.5"/>
        <circle class="cls-1" cx="407.5" cy="689.73" r="3"/>
        <circle class="cls-1" cx="449.96" cy="740.11" r="1.5"/>
        <circle class="cls-1" cx="576.75" cy="675.84" r="3.5"/>
        <circle class="cls-1" cx="509.3" cy="687.34" r="1.5"/>
        <circle class="cls-1" cx="510.63" cy="799.28" r="1"/>
        <circle class="cls-1" cx="494.65" cy="759.75" r="3"/>
        <circle class="cls-1" cx="548.74" cy="728.92" r="1.5"/>
        <circle class="cls-1" cx="523" cy="754.43" r="1.5"/>
        <circle class="cls-1" cx="892" cy="756" r="3"/>
        <circle class="cls-1" cx="927.5" cy="811.5" r="1.5"/>
        <circle class="cls-1" cx="828.5" cy="913.5" r="3.5"/>
        <circle class="cls-1" cx="859.5" cy="852.5" r="1.5"/>
        <circle class="cls-1" cx="966" cy="887" r="1"/>
        <circle class="cls-1" cx="933" cy="860" r="3"/>
        <circle class="cls-1" cx="887.5" cy="902.5" r="1.5"/>
        <circle class="cls-1" cx="919.5" cy="885.5" r="1.5"/>
        <circle class="cls-1" cx="828.75" cy="687.84" r="3.5"/>
        <circle class="cls-1" cx="761.3" cy="699.34" r="1.5"/>
        <circle class="cls-1" cx="762.63" cy="811.28" r="1"/>
        <circle class="cls-1" cx="746.65" cy="771.75" r="3"/>
        <circle class="cls-1" cx="800.74" cy="740.92" r="1.5"/>
        <circle class="cls-1" cx="775" cy="766.43" r="1.5"/>
        <circle class="cls-1" cx="1165" cy="543" r="3"/>
        <circle class="cls-1" cx="1200.5" cy="598.5" r="1.5"/>
        <circle class="cls-1" cx="1101.5" cy="700.5" r="3.5"/>
        <circle class="cls-1" cx="1132.5" cy="639.5" r="1.5"/>
        <circle class="cls-1" cx="1239" cy="674" r="1"/>
        <circle class="cls-1" cx="1206" cy="647" r="3"/>
        <circle class="cls-1" cx="1160.5" cy="689.5" r="1.5"/>
        <circle class="cls-1" cx="1192.5" cy="672.5" r="1.5"/>
        <circle class="cls-1" cx="932.5" cy="488.73" r="3"/>
        <circle class="cls-1" cx="974.96" cy="539.11" r="1.5"/>
        <circle class="cls-1" cx="1101.75" cy="474.84" r="3.5"/>
        <circle class="cls-1" cx="1034.3" cy="486.34" r="1.5"/>
        <circle class="cls-1" cx="1035.63" cy="598.28" r="1"/>
        <circle class="cls-1" cx="1019.65" cy="558.75" r="3"/>
        <circle class="cls-1" cx="1073.74" cy="527.92" r="1.5"/>
        <circle class="cls-1" cx="1048" cy="553.43" r="1.5"/>
        <circle class="cls-1" cx="1417" cy="555" r="3"/>
        <circle class="cls-1" cx="1452.5" cy="610.5" r="1.5"/>
        <circle class="cls-1" cx="1353.5" cy="712.5" r="3.5"/>
        <circle class="cls-1" cx="1384.5" cy="651.5" r="1.5"/>
        <circle class="cls-1" cx="1491" cy="686" r="1"/>
        <circle class="cls-1" cx="1458" cy="659" r="3"/>
        <circle class="cls-1" cx="1412.5" cy="701.5" r="1.5"/>
        <circle class="cls-1" cx="1444.5" cy="684.5" r="1.5"/>
        <circle class="cls-1" cx="1353.75" cy="486.84" r="3.5"/>
        <circle class="cls-1" cx="1286.3" cy="498.34" r="1.5"/>
        <circle class="cls-1" cx="1287.63" cy="610.28" r="1"/>
        <circle class="cls-1" cx="1271.65" cy="570.75" r="3"/>
        <circle class="cls-1" cx="1325.74" cy="539.92" r="1.5"/>
        <circle class="cls-1" cx="1300" cy="565.43" r="1.5"/>
        <circle class="cls-1" cx="1113" cy="734" r="3"/>
        <circle class="cls-1" cx="1148.5" cy="789.5" r="1.5"/>
        <circle class="cls-1" cx="1049.5" cy="891.5" r="3.5"/>
        <circle class="cls-1" cx="1080.5" cy="830.5" r="1.5"/>
        <circle class="cls-1" cx="1187" cy="865" r="1"/>
        <circle class="cls-1" cx="1154" cy="838" r="3"/>
        <circle class="cls-1" cx="1108.5" cy="880.5" r="1.5"/>
        <circle class="cls-1" cx="1140.5" cy="863.5" r="1.5"/>
        <circle class="cls-1" cx="880.5" cy="679.73" r="3"/>
        <circle class="cls-1" cx="922.96" cy="730.11" r="1.5"/>
        <circle class="cls-1" cx="1049.75" cy="665.84" r="3.5"/>
        <circle class="cls-1" cx="982.3" cy="677.34" r="1.5"/>
        <circle class="cls-1" cx="983.63" cy="789.28" r="1"/>
        <circle class="cls-1" cx="967.65" cy="749.75" r="3"/>
        <circle class="cls-1" cx="1021.74" cy="718.92" r="1.5"/>
        <circle class="cls-1" cx="996" cy="744.43" r="1.5"/>
        <circle class="cls-1" cx="1365" cy="746" r="3"/>
        <circle class="cls-1" cx="1400.5" cy="801.5" r="1.5"/>
        <circle class="cls-1" cx="1301.5" cy="903.5" r="3.5"/>
        <circle class="cls-1" cx="1332.5" cy="842.5" r="1.5"/>
        <circle class="cls-1" cx="1439" cy="877" r="1"/>
        <circle class="cls-1" cx="1406" cy="850" r="3"/>
        <circle class="cls-1" cx="1360.5" cy="892.5" r="1.5"/>
        <circle class="cls-1" cx="1392.5" cy="875.5" r="1.5"/>
        <circle class="cls-1" cx="1301.75" cy="677.84" r="3.5"/>
        <circle class="cls-1" cx="1234.3" cy="689.34" r="1.5"/>
        <circle class="cls-1" cx="1235.63" cy="801.28" r="1"/>
        <circle class="cls-1" cx="1219.65" cy="761.75" r="3"/>
        <circle class="cls-1" cx="1273.74" cy="730.92" r="1.5"/>
        <circle class="cls-1" cx="1248" cy="756.43" r="1.5"/>
        <circle class="cls-1" cx="1681" cy="563" r="3"/>
        <circle class="cls-1" cx="1716.5" cy="618.5" r="1.5"/>
        <circle class="cls-1" cx="1617.5" cy="720.5" r="3.5"/>
        <circle class="cls-1" cx="1648.5" cy="659.5" r="1.5"/>
        <circle class="cls-1" cx="1755" cy="694" r="1"/>
        <circle class="cls-1" cx="1722" cy="667" r="3"/>
        <circle class="cls-1" cx="1676.5" cy="709.5" r="1.5"/>
        <circle class="cls-1" cx="1708.5" cy="692.5" r="1.5"/>
        <circle class="cls-1" cx="1448.5" cy="508.73" r="3"/>
        <circle class="cls-1" cx="1490.96" cy="559.11" r="1.5"/>
        <circle class="cls-1" cx="1617.75" cy="494.84" r="3.5"/>
        <circle class="cls-1" cx="1550.3" cy="506.34" r="1.5"/>
        <circle class="cls-1" cx="1551.63" cy="618.28" r="1"/>
        <circle class="cls-1" cx="1535.65" cy="578.75" r="3"/>
        <circle class="cls-1" cx="1589.74" cy="547.92" r="1.5"/>
        <circle class="cls-1" cx="1564" cy="573.43" r="1.5"/>
        <circle class="cls-1" cx="1869.5" cy="732.5" r="3.5"/>
        <circle class="cls-1" cx="1900.5" cy="671.5" r="1.5"/>
        <circle class="cls-1" cx="1869.75" cy="506.84" r="3.5"/>
        <circle class="cls-1" cx="1802.3" cy="518.34" r="1.5"/>
        <circle class="cls-1" cx="1803.63" cy="630.28" r="1"/>
        <circle class="cls-1" cx="1787.65" cy="590.75" r="3"/>
        <circle class="cls-1" cx="1841.74" cy="559.92" r="1.5"/>
        <circle class="cls-1" cx="1816" cy="585.43" r="1.5"/>
        <circle class="cls-1" cx="1629" cy="754" r="3"/>
        <circle class="cls-1" cx="1664.5" cy="809.5" r="1.5"/>
        <circle class="cls-1" cx="1565.5" cy="911.5" r="3.5"/>
        <circle class="cls-1" cx="1596.5" cy="850.5" r="1.5"/>
        <circle class="cls-1" cx="1703" cy="885" r="1"/>
        <circle class="cls-1" cx="1670" cy="858" r="3"/>
        <circle class="cls-1" cx="1624.5" cy="900.5" r="1.5"/>
        <circle class="cls-1" cx="1656.5" cy="883.5" r="1.5"/>
        <circle class="cls-1" cx="1396.5" cy="699.73" r="3"/>
        <circle class="cls-1" cx="1438.96" cy="750.11" r="1.5"/>
        <circle class="cls-1" cx="1565.75" cy="685.84" r="3.5"/>
        <circle class="cls-1" cx="1498.3" cy="697.34" r="1.5"/>
        <circle class="cls-1" cx="1499.63" cy="809.28" r="1"/>
        <circle class="cls-1" cx="1483.65" cy="769.75" r="3"/>
        <circle class="cls-1" cx="1537.74" cy="738.92" r="1.5"/>
        <circle class="cls-1" cx="1512" cy="764.43" r="1.5"/>
        <circle class="cls-1" cx="1881" cy="766" r="3"/>
        <circle class="cls-1" cx="1916.5" cy="821.5" r="1.5"/>
        <circle class="cls-1" cx="1817.5" cy="923.5" r="3.5"/>
        <circle class="cls-1" cx="1848.5" cy="862.5" r="1.5"/>
        <circle class="cls-1" cx="1876.5" cy="912.5" r="1.5"/>
        <circle class="cls-1" cx="1908.5" cy="895.5" r="1.5"/>
        <circle class="cls-1" cx="1817.75" cy="697.84" r="3.5"/>
        <circle class="cls-1" cx="1750.3" cy="709.34" r="1.5"/>
        <circle class="cls-1" cx="1751.63" cy="821.28" r="1"/>
        <circle class="cls-1" cx="1735.65" cy="781.75" r="3"/>
        <circle class="cls-1" cx="1789.74" cy="750.92" r="1.5"/>
        <circle class="cls-1" cx="1764" cy="776.43" r="1.5"/>
        <circle class="cls-1" cx="116.5" cy="944.5" r="1.5"/>
        <circle class="cls-1" cx="17.5" cy="1046.5" r="3.5"/>
        <circle class="cls-1" cx="48.5" cy="985.5" r="1.5"/>
        <circle class="cls-1" cx="155" cy="1020" r="1"/>
        <circle class="cls-1" cx="122" cy="993" r="3"/>
        <circle class="cls-1" cx="76.5" cy="1035.5" r="1.5"/>
        <circle class="cls-1" cx="108.5" cy="1018.5" r="1.5"/>
        <circle class="cls-1" cx="368.5" cy="956.5" r="1.5"/>
        <circle class="cls-1" cx="269.5" cy="1058.5" r="3.5"/>
        <circle class="cls-1" cx="300.5" cy="997.5" r="1.5"/>
        <circle class="cls-1" cx="407" cy="1032" r="1"/>
        <circle class="cls-1" cx="374" cy="1005" r="3"/>
        <circle class="cls-1" cx="328.5" cy="1047.5" r="1.5"/>
        <circle class="cls-1" cx="360.5" cy="1030.5" r="1.5"/>
        <circle class="cls-1" cx="203.63" cy="956.28" r="1"/>
        <circle class="cls-1" cx="187.65" cy="916.75" r="3"/>
        <circle class="cls-1" cx="632.5" cy="964.5" r="1.5"/>
        <circle class="cls-1" cx="533.5" cy="1066.5" r="3.5"/>
        <circle class="cls-1" cx="564.5" cy="1005.5" r="1.5"/>
        <circle class="cls-1" cx="671" cy="1040" r="1"/>
        <circle class="cls-1" cx="638" cy="1013" r="3"/>
        <circle class="cls-1" cx="592.5" cy="1055.5" r="1.5"/>
        <circle class="cls-1" cx="624.5" cy="1038.5" r="1.5"/>
        <circle class="cls-1" cx="467.63" cy="964.28" r="1"/>
        <circle class="cls-1" cx="451.65" cy="924.75" r="3"/>
        <circle class="cls-1" cx="480" cy="919.43" r="1.5"/>
        <circle class="cls-1" cx="849" cy="921" r="3"/>
        <circle class="cls-1" cx="884.5" cy="976.5" r="1.5"/>
        <circle class="cls-1" cx="785.5" cy="1078.5" r="3.5"/>
        <circle class="cls-1" cx="816.5" cy="1017.5" r="1.5"/>
        <circle class="cls-1" cx="923" cy="1052" r="1"/>
        <circle class="cls-1" cx="890" cy="1025" r="3"/>
        <circle class="cls-1" cx="844.5" cy="1067.5" r="1.5"/>
        <circle class="cls-1" cx="876.5" cy="1050.5" r="1.5"/>
        <circle class="cls-1" cx="719.63" cy="976.28" r="1"/>
        <circle class="cls-1" cx="703.65" cy="936.75" r="3"/>
        <circle class="cls-1" cx="732" cy="931.43" r="1.5"/>
        <circle class="cls-1" cx="1105.5" cy="954.5" r="1.5"/>
        <circle class="cls-1" cx="1006.5" cy="1056.5" r="3.5"/>
        <circle class="cls-1" cx="1037.5" cy="995.5" r="1.5"/>
        <circle class="cls-1" cx="1144" cy="1030" r="1"/>
        <circle class="cls-1" cx="1111" cy="1003" r="3"/>
        <circle class="cls-1" cx="1065.5" cy="1045.5" r="1.5"/>
        <circle class="cls-1" cx="1097.5" cy="1028.5" r="1.5"/>
        <circle class="cls-1" cx="940.63" cy="954.28" r="1"/>
        <circle class="cls-1" cx="924.65" cy="914.75" r="3"/>
        <circle class="cls-1" cx="1357.5" cy="966.5" r="1.5"/>
        <circle class="cls-1" cx="1258.5" cy="1068.5" r="3.5"/>
        <circle class="cls-1" cx="1289.5" cy="1007.5" r="1.5"/>
        <circle class="cls-1" cx="1396" cy="1042" r="1"/>
        <circle class="cls-1" cx="1363" cy="1015" r="3"/>
        <circle class="cls-1" cx="1317.5" cy="1057.5" r="1.5"/>
        <circle class="cls-1" cx="1349.5" cy="1040.5" r="1.5"/>
        <circle class="cls-1" cx="1192.63" cy="966.28" r="1"/>
        <circle class="cls-1" cx="1176.65" cy="926.75" r="3"/>
        <circle class="cls-1" cx="1205" cy="921.43" r="1.5"/>
        <circle class="cls-1" cx="1586" cy="919" r="3"/>
        <circle class="cls-1" cx="1621.5" cy="974.5" r="1.5"/>
        <circle class="cls-1" cx="1522.5" cy="1076.5" r="3.5"/>
        <circle class="cls-1" cx="1553.5" cy="1015.5" r="1.5"/>
        <circle class="cls-1" cx="1660" cy="1050" r="1"/>
        <circle class="cls-1" cx="1627" cy="1023" r="3"/>
        <circle class="cls-1" cx="1581.5" cy="1065.5" r="1.5"/>
        <circle class="cls-1" cx="1613.5" cy="1048.5" r="1.5"/>
        <circle class="cls-1" cx="1395.96" cy="915.11" r="1.5"/>
        <circle class="cls-1" cx="1456.63" cy="974.28" r="1"/>
        <circle class="cls-1" cx="1440.65" cy="934.75" r="3"/>
        <circle class="cls-1" cx="1469" cy="929.43" r="1.5"/>
        <circle class="cls-1" cx="1838" cy="931" r="3"/>
        <circle class="cls-1" cx="1873.5" cy="986.5" r="1.5"/>
        <circle class="cls-1" cx="1805.5" cy="1027.5" r="1.5"/>
        <circle class="cls-1" cx="1912" cy="1062" r="1"/>
        <circle class="cls-1" cx="1879" cy="1035" r="3"/>
        <circle class="cls-1" cx="1833.5" cy="1077.5" r="1.5"/>
        <circle class="cls-1" cx="1865.5" cy="1060.5" r="1.5"/>
        <circle class="cls-1" cx="1708.63" cy="986.28" r="1"/>
        <circle class="cls-1" cx="1692.65" cy="946.75" r="3"/>
        <circle class="cls-1" cx="1746.74" cy="915.92" r="1.5"/>
        <circle class="cls-1" cx="1721" cy="941.43" r="1.5"/>
      </g>
    </g>
  </g>
</svg>